<svg xmlns="http://www.w3.org/2000/svg" width="22" height="23" viewBox="0 0 22 23">
    <path fill="#E4E9F2" fill-rule="evenodd" d="M15.075 18.406c-.117 0-.233-.029-.338-.085l-3.748-2.06-3.748 2.06c-.248.137-.55.114-.776-.06-.226-.174-.339-.468-.29-.758l.735-4.344-3.028-3.086c-.192-.202-.263-.498-.183-.772.087-.28.318-.483.595-.524l4.189-.64 1.845-3.959c.122-.266.38-.435.661-.435.282 0 .539.17.661.435l1.867 3.95 4.189.641c.277.042.508.245.595.525.08.273.009.57-.183.771l-3.028 3.087.735 4.343c.053.296-.062.597-.294.772-.133.098-.294.147-.456.139z"/>
</svg>
