<?xml version="1.0" encoding="UTF-8"?>
<svg width="150px" height="150px" viewBox="0 0 150 150" version="1.1" xmlns="http://www.w3.org/2000/svg" xmlns:xlink="http://www.w3.org/1999/xlink">
    <!-- Generator: Sketch 64 (93537) - https://sketch.com -->
    <title>logo/icon</title>
    <desc>Created with Sketch.</desc>
    <defs>
        <circle id="path-1" cx="75" cy="75" r="75"></circle>
    </defs>
    <g id="Website" stroke="none" stroke-width="1" fill="none" fill-rule="evenodd">
        <g id="Landing-Page" transform="translate(-645.000000, -436.000000)">
            <g id="logo/icon" transform="translate(645.000000, 436.000000)">
                <g id="Group-+-Line-Mask">
                    <mask id="mask-2" fill="white">
                        <use xlink:href="#path-1"></use>
                    </mask>
                    <use id="Mask" fill="#1BD760" xlink:href="#path-1"></use>
                    <g id="Group" mask="url(#mask-2)" fill="#FFFFFF">
                        <g transform="translate(21.428571, 21.428571)">
                            <path d="M53.5714286,-4.46428571 C21.5191886,-4.46428571 -4.46428571,21.5191886 -4.46428571,53.5714286 C-4.46428571,85.6236685 21.5191886,111.607143 53.5714286,111.607143 C85.6236685,111.607143 111.607143,85.6236685 111.607143,53.5714286 C111.607143,21.5191886 85.6236685,-4.46428571 53.5714286,-4.46428571 Z M53.5714286,4.46428571 C80.6925547,4.46428571 102.678571,26.4503025 102.678571,53.5714286 C102.678571,80.6925547 80.6925547,102.678571 53.5714286,102.678571 C26.4503025,102.678571 4.46428571,80.6925547 4.46428571,53.5714286 C4.46428571,26.4503025 26.4503025,4.46428571 53.5714286,4.46428571 Z" id="Oval" fill-rule="nonzero"></path>
                            <path d="M76.3336785,73.6295432 C75.4469505,74.9800376 73.5538896,75.4030247 72.1050763,74.5800329 C60.5186947,68.0032127 45.9351138,66.5181067 28.7602842,70.1613772 C27.1052552,70.5137753 25.4555288,69.5506999 25.0784485,68.0141568 C24.6990115,66.4770665 25.7324472,64.9449011 27.3910113,64.5941446 C46.1861079,60.603948 62.3080586,62.3210677 75.3132049,69.7017276 C76.7631965,70.5241721 77.2198172,72.2834264 76.3336785,73.6295432" id="Path" fill-rule="evenodd"></path>
                            <path d="M81.5842949,60.9088392 C80.4881497,62.4782879 78.1627477,62.970624 76.3865758,62.0068915 C63.3624729,54.9420739 43.5010631,52.8951001 28.0919474,57.0227554 C26.0941157,57.5554384 23.9834286,56.5615734 23.3763239,54.8011146 C22.7744279,53.0381022 23.9012466,51.1790741 25.8961845,50.642816 C43.4987481,45.9288518 65.3817181,48.2117792 80.3411482,56.3245984 C82.11732,57.289863 82.6763888,59.3429655 81.5842949,60.9088392" id="Path" fill-rule="evenodd"></path>
                            <path d="M82.5525322,47.6450673 C67.1890121,39.3446037 41.8472289,38.5814021 27.1809124,42.6309266 C24.8252182,43.281253 22.3346364,42.0717287 21.6214968,39.9291725 C20.907788,37.785063 22.235605,35.5208294 24.5924376,34.8694675 C41.4289068,30.2203587 69.4160794,31.1181819 87.1028524,40.6695919 C89.221782,41.8138764 89.9161398,44.3028246 88.6606043,46.2268794 C87.4039305,48.1540409 84.6657703,48.7893518 82.5525322,47.6450673" id="Path" fill-rule="evenodd"></path>
                        </g>
                    </g>
                    <polygon id="Line" fill="#FFFFFF" fill-rule="nonzero" mask="url(#mask-2)" points="117.455654 109.87951 146.645215 139.069071 139.069071 146.645215 109.87951 117.455654"></polygon>
                </g>
            </g>
        </g>
    </g>
</svg>