<?xml version="1.0" encoding="utf-8"?>
<!-- Generator: Adobe Illustrator 21.0.2, SVG Export Plug-In . SVG Version: 6.00 Build 0)  -->
<svg version="1.1" id="Layer_1" xmlns="http://www.w3.org/2000/svg" xmlns:xlink="http://www.w3.org/1999/xlink" x="0px" y="0px"
	 viewBox="0 0 50 50" style="enable-background:new 0 0 50 50;" xml:space="preserve">
<style type="text/css">
	.st0{opacity:0.5;fill:#FFFFFF;enable-background:new    ;}
</style>
<title>no_img</title>
<path class="st0" d="M39.4,32.2c0-4.4,0-8.9,0-13.3c0.1-1.2-0.8-2.2-1.9-2.3c-0.4-0.1-1,0.2-1.3-0.3C36.1,15.9,36,15.5,36,15
	c-0.1-1.2-1-2.1-2.2-2.1c-1.3,0.2-2.6,0.4-3.9,0.6c-0.9,0.1-1.8,0.3-2.6,0.4s-1.8,0.3-2.7,0.5s-1.8,0.3-2.7,0.5
	c-1.6,0.3-3.3,0.6-4.9,0.8s-3,0.5-4.5,0.8c-1.2,0.2-2.1,1.3-1.9,2.6v0.1c0.2,0.9,0.4,1.7,0.5,2.6c0.2,1.4,0.5,2.9,0.8,4.3
	c0.3,1.6,0.5,3.2,0.9,4.8c0.3,1.4,0.4,2.8,0.7,4.1c0.3,1.2,1.3,2.1,2.6,2.1H37c1.2,0.1,2.3-0.7,2.4-1.9c0-0.2,0-0.3,0-0.5
	C39.4,33.9,39.4,33,39.4,32.2z M13.7,25.9c0,0,0,0.1-0.2,0.1c-0.1-0.7-0.3-1.5-0.4-2.2c-0.2-1.4-0.5-2.8-0.7-4.2
	c0-0.2-0.1-0.3-0.1-0.5c-0.1-0.5,0.3-0.9,0.8-1c0.1,0,0.2,0,0.4,0s0.2,0.2,0.2,0.3C13.8,20.9,13.7,23.4,13.7,25.9z M25.9,15.9
	c0.9-0.1,1.9-0.3,2.8-0.5l2.8-0.5l1.9-0.3c0.3-0.1,0.7-0.1,0.8,0.3c0.1,0.2,0.1,0.5,0.2,0.8c0,0.9,0,0.9-0.8,0.9h-9.4
	c-0.2,0-0.5,0.1-0.7-0.1C24.3,16.3,25.1,16,25.9,15.9L25.9,15.9z M37,35.3c-3.5,0-7,0-10.4,0s-6.9,0-10.3,0c-0.6,0-0.8-0.2-0.8-0.8
	c0-5.1,0-10.3,0-15.4c0-0.9,0.1-0.9,0.9-0.9h20.4c0.8,0,0.9,0.1,0.9,0.9c0,5.2,0,10.3,0,15.5C37.7,35.2,37.5,35.3,37,35.3z"/>
<path class="st0" d="M19.7,25.1c1.4,0,2.6-1.1,2.7-2.5l0,0c-0.1-1.4-1.2-2.5-2.6-2.6c-1.5,0-2.6,1.2-2.7,2.7
	C17.1,24.1,18.3,25.1,19.7,25.1z"/>
<path class="st0" d="M36,28.2c0-0.3-0.1-0.7-0.4-0.9c-1.6-1.6-3.2-3.2-4.8-4.8c-0.3-0.3-0.4-0.4-0.7,0c-2,2-4.1,4.1-6.1,6.1
	c-0.3,0.3-0.5,0.4-0.8,0c-0.4-0.5-0.9-0.9-1.4-1.4c-0.3-0.3-0.5-0.3-0.8,0c-0.9,0.9-1.8,1.9-2.7,2.7c-0.9,0.8-1.4,2-1.2,3.1
	c0,0.6,0.2,0.8,0.8,0.8c2.9,0,5.8,0,8.6,0s5.8,0,8.8,0c0.5,0,0.6-0.1,0.6-0.6C36,31.5,36,29.8,36,28.2z"/>
</svg>
